<svg xmlns="http://www.w3.org/2000/svg" width="32" height="26" viewBox="0 0 32 26" fill="none" style="color:grey;">
<path d="M31.4715 11.033C31.6089 10.9631 31.7275 10.8619 31.8175 10.7378C31.9075 10.6137 31.9664 10.4702 31.9893 10.3192C32.0121 10.1682 31.9983 10.0141 31.949 9.86938C31.8997 9.7247 31.8162 9.59367 31.7055 9.48711C31.6693 9.35371 31.6186 9.22454 31.5544 9.10185L27.2147 1.02095C27.109 0.827347 26.9705 0.653064 26.8052 0.505658C26.7069 0.392569 26.5834 0.30355 26.4443 0.245605C26.1553 0.0857119 25.8297 0.00118648 25.4984 0H6.50647C6.39192 0.00131458 6.2777 0.0125949 6.16515 0.0337104C5.96152 -0.0193001 5.74599 -0.00578526 5.55078 0.0722358C5.40859 0.130323 5.28234 0.220818 5.18234 0.336323C5.08234 0.451828 5.01143 0.589064 4.97541 0.736816C4.90366 0.825795 4.84002 0.920877 4.78525 1.02095L0.445632 9.09703C0.381407 9.21973 0.330731 9.34889 0.294477 9.48229C0.183793 9.58886 0.100342 9.71988 0.0510063 9.86456C0.00167079 10.0092 -0.012136 10.1634 0.0107235 10.3144C0.0335829 10.4654 0.0924544 10.6089 0.182483 10.733C0.272512 10.8571 0.391119 10.9582 0.528524 11.0282C0.603707 11.1481 0.692003 11.2595 0.791826 11.3605L15.2393 25.673L15.2686 25.7019C15.3104 25.7445 15.3561 25.7832 15.4051 25.8175L15.4734 25.8608C15.5261 25.8916 15.5816 25.9174 15.6392 25.9379L15.7123 25.9619C15.7918 25.9833 15.8737 25.9946 15.9561 25.9956H16C16.0616 26.0015 16.1237 26.0015 16.1853 25.9956L16.3072 25.9571H16.3559C16.4033 25.9367 16.449 25.9125 16.4925 25.8849H16.5266C16.5718 25.8532 16.6143 25.8177 16.6534 25.7789L16.7168 25.7211L31.213 11.3605C31.3109 11.2608 31.3975 11.151 31.4715 11.033ZM20.798 11.1437L16 22.5331L11.2313 11.1437H20.798ZM11.9822 9.21743L16.0049 2.9569L20.0276 9.21743H11.9822ZM17.6578 1.9215H24.6841L21.8951 8.5384L17.6578 1.9215ZM10.1488 8.49987L7.37927 1.9215H14.3422L10.1488 8.49987ZM13.2207 20.9631L3.32246 11.1437H9.12487L13.2207 20.9631ZM22.9093 11.1437H28.6775L18.7793 20.9631L22.9093 11.1437ZM29.4089 9.21743H23.7235L26.2396 3.28437L29.4089 9.21743ZM5.81408 3.21695L8.32033 9.21261H2.59106L5.81408 3.21695Z" fill=""></path>
</svg>